<svg xmlns="http://www.w3.org/2000/svg" viewBox="0 0 512 512" width="512" height="512"><defs>
<linearGradient id="k07ring" x1="0" y1="0" x2="1" y2="1">
<stop offset="0" stop-color="#FAC45E"/><stop offset="0.45" stop-color="#F3A52C"/><stop offset="1" stop-color="#D57708"/>
</linearGradient>
<radialGradient id="k07glow" cx="0.5" cy="0.5" r="0.5">
<stop offset="0.55" stop-color="#F5A623" stop-opacity="0.55"/><stop offset="1" stop-color="#F5A623" stop-opacity="0"/>
</radialGradient>
<filter id="k07diecut" x="-15%" y="-15%" width="130%" height="130%" color-interpolation-filters="sRGB">
<feGaussianBlur in="SourceAlpha" stdDeviation="5.5" result="b"/>
<feComponentTransfer in="b" result="d"><feFuncA type="linear" slope="30" intercept="-0.6"/></feComponentTransfer>
<feFlood flood-color="#FFFFFF" result="w"/>
<feComposite in="w" in2="d" operator="in" result="border"/>
<feMerge><feMergeNode in="border"/><feMergeNode in="SourceGraphic"/></feMerge>
</filter>
</defs><g id="fokia" filter="url(#k07diecut)"><g transform="translate(26.8 45.6) scale(0.8951)"><g id="props_back"><path d="M126.1,95.0 L101.8,81.0" fill="none" stroke="#0D0B09" stroke-width="14" stroke-linecap="round"/><path d="M126.1,95.0 L101.8,81.0" fill="none" stroke="#F3A52C" stroke-width="6" stroke-linecap="round"/><path d="M181.0,40.1 L167.0,15.8" fill="none" stroke="#0D0B09" stroke-width="14" stroke-linecap="round"/><path d="M181.0,40.1 L167.0,15.8" fill="none" stroke="#F3A52C" stroke-width="6" stroke-linecap="round"/><path d="M256.0,20.0 L256.0,-8.0" fill="none" stroke="#0D0B09" stroke-width="14" stroke-linecap="round"/><path d="M256.0,20.0 L256.0,-8.0" fill="none" stroke="#F3A52C" stroke-width="6" stroke-linecap="round"/><path d="M331.0,40.1 L345.0,15.8" fill="none" stroke="#0D0B09" stroke-width="14" stroke-linecap="round"/><path d="M331.0,40.1 L345.0,15.8" fill="none" stroke="#F3A52C" stroke-width="6" stroke-linecap="round"/><path d="M385.9,95.0 L410.2,81.0" fill="none" stroke="#0D0B09" stroke-width="14" stroke-linecap="round"/><path d="M385.9,95.0 L410.2,81.0" fill="none" stroke="#F3A52C" stroke-width="6" stroke-linecap="round"/></g><g id="ring_back"></g><g id="tail"><path d="M216,420 C176,436 144,442 124,458 C114,470 134,478 156,472 C170,480 190,478 196,466 C212,462 226,450 232,440Z" fill="#2B2420" stroke="#0D0B09" stroke-width="10" stroke-linejoin="round" stroke-linecap="round"/><path d="M186,450 Q160,456 144,466" fill="none" stroke="#3F352F" stroke-width="4" stroke-linecap="round"/><path d="M296,420 C336,436 368,442 388,458 C398,470 378,478 356,472 C342,480 322,478 316,466 C300,462 286,450 280,440Z" fill="#2B2420" stroke="#0D0B09" stroke-width="10" stroke-linejoin="round" stroke-linecap="round"/><path d="M326,450 Q352,456 368,466" fill="none" stroke="#3F352F" stroke-width="4" stroke-linecap="round"/></g><clipPath id="k07bc"><path d="M256.0,172.0 C330.0,172.0 362.0,200.0 364.0,240.0 C366.0,300.0 370.0,386.0 344.0,424.0 C324.0,446.0 188.0,446.0 168.0,424.0 C142.0,386.0 146.0,300.0 148.0,240.0 C150.0,200.0 182.0,172.0 256.0,172.0Z"/></clipPath><g id="body"><path d="M256.0,172.0 C330.0,172.0 362.0,200.0 364.0,240.0 C366.0,300.0 370.0,386.0 344.0,424.0 C324.0,446.0 188.0,446.0 168.0,424.0 C142.0,386.0 146.0,300.0 148.0,240.0 C150.0,200.0 182.0,172.0 256.0,172.0Z" fill="#2B2420"/><g clip-path="url(#k07bc)"><path d="M320.0,190 C376.0,240 384.0,340 384.0,416 L322.0,416 C350.0,340 354.0,250 320.0,190Z" fill="#1B1613"/><path d="M172.0,300 q6,-8 12,0" fill="none" stroke="#3F352F" stroke-width="3.5" stroke-linecap="round"/><path d="M186.0,320 q6,-8 12,0" fill="none" stroke="#3F352F" stroke-width="3.5" stroke-linecap="round"/><path d="M330.0,292 q-6,-8 -12,0" fill="none" stroke="#3F352F" stroke-width="3.5" stroke-linecap="round"/><path d="M318.0,314 q-6,-8 -12,0" fill="none" stroke="#3F352F" stroke-width="3.5" stroke-linecap="round"/><ellipse cx="256.0" cy="350.0" rx="64.0" ry="52.0" fill="#F4EDE1"/><path d="M286.0,316 C322.0,330 326.0,370 306.0,396" fill="none" stroke="#E2D6C4" stroke-width="8" stroke-linecap="round"/><path d="M226.0,336 q5,-6 10,0" fill="none" stroke="#E2D6C4" stroke-width="3" stroke-linecap="round"/><path d="M246.0,350 q5,-6 10,0" fill="none" stroke="#E2D6C4" stroke-width="3" stroke-linecap="round"/><path d="M266.0,332 q5,-6 10,0" fill="none" stroke="#E2D6C4" stroke-width="3" stroke-linecap="round"/><path d="M232.0,362 q5,-6 10,0" fill="none" stroke="#E2D6C4" stroke-width="3" stroke-linecap="round"/><path d="M360.0,250 C362.0,320 362.0,370 362.0,408" fill="none" stroke="#F3A52C" stroke-width="6" stroke-linecap="round" opacity="0.85"/><path d="M152.0,260 C150.0,330 150.0,374 150.0,408" fill="none" stroke="#F3A52C" stroke-width="4" stroke-linecap="round" opacity="0.5"/></g><path d="M256.0,172.0 C330.0,172.0 362.0,200.0 364.0,240.0 C366.0,300.0 370.0,386.0 344.0,424.0 C324.0,446.0 188.0,446.0 168.0,424.0 C142.0,386.0 146.0,300.0 148.0,240.0 C150.0,200.0 182.0,172.0 256.0,172.0Z" fill="none" stroke="#0D0B09" stroke-width="10" stroke-linecap="round" stroke-linejoin="round"/></g><g id="ring"></g><g id="flipper_left"><path d="M168,300 C130,290 90,244 100,196" fill="none" stroke="#0D0B09" stroke-width="40" stroke-linecap="round"/><path d="M168,300 C130,290 90,244 100,196" fill="none" stroke="#2B2420" stroke-width="26" stroke-linecap="round"/><path d="M168,300 C130,290 90,244 100,196" fill="none" stroke="#F3A52C" stroke-width="4" stroke-linecap="round" opacity="0.6" transform="translate(-8 3)"/><g transform="rotate(-26 100 196)"><circle cx="100.0" cy="202.0" r="23.0" fill="#0D0B09" stroke="#0D0B09" stroke-width="14"/><ellipse cx="82.0" cy="174.0" rx="9.0" ry="17.0" fill="#0D0B09" stroke="#0D0B09" stroke-width="14"/><ellipse cx="97.0" cy="166.0" rx="9.0" ry="18.0" fill="#0D0B09" stroke="#0D0B09" stroke-width="14"/><ellipse cx="113.0" cy="169.0" rx="9.0" ry="17.0" fill="#0D0B09" stroke="#0D0B09" stroke-width="14"/><ellipse cx="127.0" cy="188.0" rx="8.0" ry="14.0" fill="#0D0B09" stroke="#0D0B09" stroke-width="14"/><circle cx="100.0" cy="202.0" r="23.0" fill="#F4EDE1"/><ellipse cx="82.0" cy="174.0" rx="9.0" ry="17.0" fill="#F4EDE1"/><ellipse cx="97.0" cy="166.0" rx="9.0" ry="18.0" fill="#F4EDE1"/><ellipse cx="113.0" cy="169.0" rx="9.0" ry="17.0" fill="#F4EDE1"/><ellipse cx="127.0" cy="188.0" rx="8.0" ry="14.0" fill="#F4EDE1"/><path d="M82.5,209.75 Q100,219.75 117.5,209.75" fill="none" stroke="#E2D6C4" stroke-width="5" stroke-linecap="round"/></g></g><g id="flipper_right"><path d="M344,300 C382,290 422,244 412,196" fill="none" stroke="#0D0B09" stroke-width="40" stroke-linecap="round"/><path d="M344,300 C382,290 422,244 412,196" fill="none" stroke="#2B2420" stroke-width="26" stroke-linecap="round"/><path d="M344,300 C382,290 422,244 412,196" fill="none" stroke="#F3A52C" stroke-width="4" stroke-linecap="round" opacity="0.6" transform="translate(8 3)"/><g transform="rotate(26 412 196)"><circle cx="412.0" cy="202.0" r="23.0" fill="#0D0B09" stroke="#0D0B09" stroke-width="14"/><ellipse cx="394.0" cy="174.0" rx="9.0" ry="17.0" fill="#0D0B09" stroke="#0D0B09" stroke-width="14"/><ellipse cx="409.0" cy="166.0" rx="9.0" ry="18.0" fill="#0D0B09" stroke="#0D0B09" stroke-width="14"/><ellipse cx="425.0" cy="169.0" rx="9.0" ry="17.0" fill="#0D0B09" stroke="#0D0B09" stroke-width="14"/><ellipse cx="439.0" cy="188.0" rx="8.0" ry="14.0" fill="#0D0B09" stroke="#0D0B09" stroke-width="14"/><circle cx="412.0" cy="202.0" r="23.0" fill="#F4EDE1"/><ellipse cx="394.0" cy="174.0" rx="9.0" ry="17.0" fill="#F4EDE1"/><ellipse cx="409.0" cy="166.0" rx="9.0" ry="18.0" fill="#F4EDE1"/><ellipse cx="425.0" cy="169.0" rx="9.0" ry="17.0" fill="#F4EDE1"/><ellipse cx="439.0" cy="188.0" rx="8.0" ry="14.0" fill="#F4EDE1"/><path d="M394.5,209.75 Q412,219.75 429.5,209.75" fill="none" stroke="#E2D6C4" stroke-width="5" stroke-linecap="round"/></g></g><clipPath id="k07hc"><path d="M148.0,178 A108,102 0 1 0 364.0,178 A108,102 0 1 0 148.0,178Z"/></clipPath><g id="head"><path d="M148.0,178 A108,102 0 1 0 364.0,178 A108,102 0 1 0 148.0,178Z" fill="#2B2420"/><g clip-path="url(#k07hc)"><path d="M316.0,76 C402.0,120 402.0,236 354.0,280 C380.0,218 372.0,128 316.0,76Z" fill="#1B1613"/><ellipse cx="202.0" cy="114.0" rx="28.0" ry="12.0" fill="#3F352F" transform="rotate(-32 202.0 114)"/><circle cx="174.0" cy="142.0" r="5.0" fill="#3F352F"/></g><path d="M157.0,218.7 A108,102 0 1 1 355.0,218.7" fill="none" stroke="#0D0B09" stroke-width="10" stroke-linecap="round" stroke-linejoin="round"/><path d="M250.0,80 C240.0,58 252.0,46 268.0,50 C258.0,58 260.0,68 270.0,78" fill="#2B2420" stroke="#0D0B09" stroke-width="6" stroke-linejoin="round"/><path d="M230.0,86 C216.0,70 222.0,60 232.0,58" fill="none" stroke="#0D0B09" stroke-width="6" stroke-linecap="round"/><path d="M256.0,136 C268.0,110 318.0,106 336.0,148 C352.0,192 344.0,240 320.0,266 C302.0,294 210.0,294 192.0,266 C168.0,240 160.0,192 176.0,148 C194.0,106 244.0,110 256.0,136Z" fill="#F4EDE1" stroke="#0D0B09" stroke-width="5" stroke-linejoin="round"/><clipPath id="k07mk"><path d="M256.0,136 C268.0,110 318.0,106 336.0,148 C352.0,192 344.0,240 320.0,266 C302.0,294 210.0,294 192.0,266 C168.0,240 160.0,192 176.0,148 C194.0,106 244.0,110 256.0,136Z"/></clipPath><g clip-path="url(#k07mk)"><path d="M296.0,290 C336.0,270 352.0,220 346.0,170 C366.0,230 346.0,290 296.0,300Z" fill="#E2D6C4"/></g><g id="blush"><ellipse cx="194.0" cy="254.0" rx="17.0" ry="10.0" fill="#F3A52C" opacity="0.45"/><ellipse cx="318.0" cy="254.0" rx="17.0" ry="10.0" fill="#F3A52C" opacity="0.45"/></g><g id="muzzle"><circle cx="228.0" cy="244.0" r="2.8" fill="#0D0B09"/><circle cx="222.0" cy="254.0" r="2.8" fill="#0D0B09"/><circle cx="284.0" cy="244.0" r="2.8" fill="#0D0B09"/><circle cx="290.0" cy="254.0" r="2.8" fill="#0D0B09"/><path d="M216.0,242 Q198.0,234 184.0,238" fill="none" stroke="#0D0B09" stroke-width="4" stroke-linecap="round" stroke-linejoin="round"/><path d="M216.0,252 Q198.0,254 184.0,258" fill="none" stroke="#0D0B09" stroke-width="4" stroke-linecap="round" stroke-linejoin="round"/><path d="M296.0,242 Q314.0,234 328.0,238" fill="none" stroke="#0D0B09" stroke-width="4" stroke-linecap="round" stroke-linejoin="round"/><path d="M296.0,252 Q314.0,254 328.0,258" fill="none" stroke="#0D0B09" stroke-width="4" stroke-linecap="round" stroke-linejoin="round"/></g><g id="brows"><path d="M205.0,130 Q225.0,114 245.0,128" fill="none" stroke="#0D0B09" stroke-width="9" stroke-linecap="round" stroke-linejoin="round"/><path d="M307.0,130 Q287.0,114 267.0,128" fill="none" stroke="#0D0B09" stroke-width="9" stroke-linecap="round" stroke-linejoin="round"/></g><g id="eyes"><clipPath id="k07e225"><ellipse cx="225.0" cy="190" rx="28.000000000000004" ry="40.32000000000001"/></clipPath><ellipse cx="225.0" cy="190.0" rx="28.0" ry="40.3" fill="#FFFFFF"/><g clip-path="url(#k07e225)"><circle cx="225.0" cy="190.0" r="7.0" fill="#0D0B09"/></g><ellipse cx="225.0" cy="190.0" rx="28.0" ry="40.3" fill="none" stroke="#0D0B09" stroke-width="6"/><clipPath id="k07e287"><ellipse cx="287.0" cy="190" rx="28.000000000000004" ry="40.32000000000001"/></clipPath><ellipse cx="287.0" cy="190.0" rx="28.0" ry="40.3" fill="#FFFFFF"/><g clip-path="url(#k07e287)"><circle cx="287.0" cy="190.0" r="7.0" fill="#0D0B09"/></g><ellipse cx="287.0" cy="190.0" rx="28.0" ry="40.3" fill="none" stroke="#0D0B09" stroke-width="6"/></g><g id="eyelids"></g><g id="mouth"><ellipse cx="256.0" cy="242.0" rx="20.0" ry="13.0" fill="#0D0B09"/><ellipse cx="249.0" cy="238.0" rx="7.0" ry="3.5" fill="#FFFFFF" opacity="0.8"/><ellipse cx="256.0" cy="280.0" rx="15.0" ry="21.0" fill="#0D0B09"/></g><path d="M352.0,104 C366.0,122 366.0,138 352.0,140 C338.0,138 338.0,122 352.0,104Z" fill="#FFFFFF" stroke="#0D0B09" stroke-width="6" stroke-linejoin="round" stroke-linecap="round"/></g><g id="props"></g></g></g></svg>